HIERARCHY
ROOT Hips
{
	OFFSET 0.00000 0.00000 0.00000
	CHANNELS 6 Xposition Yposition Zposition Yrotation Zrotation Xrotation 
	JOINT Lumbar
	{
		OFFSET 0 0 0
		CHANNELS 3 Zrotation Xrotation Yrotation
		JOINT Neck
		{
			OFFSET 0.00 0.2701 0.00
			CHANNELS 3 Zrotation Xrotation Yrotation
			End Site
			{
				OFFSET 0.00 0.1379 0.00
			}
		}
		JOINT RightShoulder
		{
			OFFSET 0.0119 0.2289 0.1181
			CHANNELS 3 Zrotation Xrotation Yrotation
			JOINT RightElbow
			{
				OFFSET 0.00 -0.1475 0.00
				CHANNELS 2 Zrotation Yrotation
				JOINT RightWrist
				{
					OFFSET 0.00 -0.1605 0.00
					CHANNELS 2 Zrotation Xrotation
					End Site
					{
						OFFSET 0.0040 -0.1068 0.0006
					}
				}
			}
		}
		JOINT LeftShoulder
		{
			OFFSET 0.0119 0.2289 -0.1181
			CHANNELS 3 Zrotation Xrotation Yrotation
			JOINT LeftElbow
			{
				OFFSET 0.00 -0.1475 0.00
				CHANNELS 2 Zrotation Yrotation
				JOINT LeftWrist
				{
					OFFSET 0.00 -0.1605 0.00
					CHANNELS 2 Zrotation Xrotation
					End Site
					{
						OFFSET 0.0040 -0.1068 -0.0006
					}
				}
			}
		}
	}
	JOINT RightHip
	{
		OFFSET 0.0316 -0.0424 0.0458
		CHANNELS 3 Zrotation Xrotation Yrotation
		JOINT RightKnee
		{
			OFFSET 0.00 -0.2438 0.00
			CHANNELS 1 Zrotation
			JOINT RightAnkle
			{
				OFFSET 0.00 -0.2449 0.00
				CHANNELS 3 Zrotation Xrotation Yrotation
				End Site
				{
					OFFSET 0.1237 -0.0542 0.0051
				}
			}
		}
	}
	JOINT LeftHip
	{
		OFFSET 0.0316 -0.0424 -0.0458
		CHANNELS 3 Zrotation Xrotation Yrotation
		JOINT LeftKnee
		{
			OFFSET 0.00 -0.2438 0.00
			CHANNELS 1 Zrotation
			JOINT LeftAnkle
			{
				OFFSET 0.00 -0.2449 0.00
				CHANNELS 3 Zrotation Xrotation Yrotation
				End Site
				{
					OFFSET 0.1237 -0.0542 -0.0051
				}
			}
		}
	}
}
MOTION
Frames: 19
Frame Time: 0.02
-0.271 -0.27809 0.12665 24.05642 17.65578 -7.14909 17.14625 10.3348 -9.94735 -14.60758 -27.43376 -2.11723 35.91061 12.78841 55.58631 89.74556 73.15657 71.31127 -2.51342 0.85091 9.28056 -55.63159 105.6447 -76.14646 62.03452 2.53409 74.56983 0.2812 -22.79976 -75.22478 -14.31248 -0.31595 -2.71641 75.45879 3.62365 20.02425 -59.84318 -18.79559 -0.42252 2.52616
-0.27029 -0.27734 0.12632 23.83598 17.13466 -7.08558 17.05557 10.35439 -9.70705 -14.00839 -27.01039 -2.11723 36.15085 13.3673 55.67154 89.24016 72.53396 69.27195 -2.67145 0.32576 9.10655 -55.62644 105.20002 -76.87883 60.79349 2.58046 74.89165 0.23979 -22.86069 -75.95269 -13.99791 -0.29747 -2.69475 75.62092 3.85021 20.20827 -60.61454 -18.77815 -0.42231 2.52623
-0.26954 -0.27657 0.12605 23.55844 16.60361 -6.99243 16.94177 10.38775 -9.49488 -13.43177 -26.72098 -2.11723 35.56594 13.88404 55.61919 88.81948 72.24357 66.46748 -2.90852 -0.50687 8.74385 -55.61282 104.57003 -77.58004 58.81548 2.78183 75.28382 0.20568 -22.94121 -76.82764 -13.64922 -0.28029 -2.67199 75.76899 4.06942 20.27826 -61.23165 -18.723 -0.38994 2.54152
-0.26881 -0.27582 0.12575 23.30983 16.07991 -6.91167 16.83436 10.41206 -9.27144 -12.84954 -26.36681 -2.11724 35.39038 14.42033 55.6347 88.31181 71.72564 63.99314 -3.11442 -1.15561 8.4936 -55.59545 103.98421 -78.22876 57.16235 2.90882 75.64023 0.16783 -23.0128 -77.61493 -13.32346 -0.26381 -2.65071 75.92215 4.28398 20.39484 -61.90551 -18.68162 -0.3731 2.54921
-0.26809 -0.27504 0.12548 23.04821 15.54181 -6.83465 16.74678 10.44764 -9.03981 -12.24727 -26.02349 -2.11724 35.09735 15.01122 55.63912 87.9852 71.50776 61.61054 -3.30292 -1.98603 8.13395 -55.61315 103.56709 -79.15405 55.56488 3.04782 76.01326 0.13083 -23.08508 -78.49174 -12.96496 -0.24277 -2.62574 76.07998 4.53294 20.53608 -62.63129 -18.65355 -0.3516 2.56017
-0.26734 -0.27431 0.12516 22.80035 15.03447 -6.74342 16.60843 10.46249 -8.83199 -11.69232 -25.68881 -2.11724 34.84393 15.46488 55.6281 87.30606 70.75828 58.85415 -3.54548 -2.51197 7.95382 -55.55202 102.75283 -79.5085 53.67179 3.19974 76.36583 0.09443 -23.16062 -79.21706 -12.66639 -0.23131 -2.60804 76.22336 4.70993 20.60026 -63.21465 -18.58916 -0.33228 2.56789
-0.26652 -0.27369 0.12466 22.60401 14.58641 -6.61647 16.37432 10.42603 -8.69112 -11.26198 -25.37999 -2.11725 34.88237 15.57777 55.62722 85.68729 68.38649 55.18276 -3.91842 -2.13108 8.34404 -55.31032 100.90739 -78.15341 51.13851 3.35847 76.67424 0.05455 -23.23673 -79.48002 -12.55026 -0.24448 -2.61032 76.35222 4.66825 20.44913 -63.43401 -18.43336 -0.32914 2.56167
-0.26569 -0.27312 0.1241 22.4238 14.17412 -6.47707 16.0838 10.36692 -8.57236 -10.87881 -25.07098 -2.11725 34.98815 15.54823 55.61128 83.70341 65.48143 51.17195 -4.34331 -1.43103 8.91636 -54.98503 98.66347 -76.24499 48.33304 3.52465 76.95521 0.01568 -23.31573 -79.58653 -12.49432 -0.26737 -2.61994 76.46403 4.55756 20.22851 -63.51718 -18.24231 -0.32904 2.55182
-0.26486 -0.27254 0.12358 22.23638 13.76483 -6.3458 15.79262 10.31196 -8.43817 -10.47421 -24.7392 -2.11726 35.07222 15.56654 55.58741 81.85675 62.87451 47.3582 -4.7428 -0.87348 9.38607 -54.67248 96.59144 -74.6878 45.65165 3.68133 77.22861 -0.02133 -23.39598 -79.76976 -12.40551 -0.28665 -2.62637 76.56875 4.49304 20.05988 -63.66915 -18.068 -0.32616 2.54446
-0.26404 -0.27192 0.12303 22.0458 13.27703 -6.20277 15.60768 10.28244 -8.3265 -10.06962 -24.5043 -2.11725 35.09236 15.654 55.61845 80.13924 60.05509 43.33468 -5.14961 -0.34235 9.93159 -54.458 94.55915 -72.72968 42.93886 3.86617 77.58567 -0.06769 -23.46716 -79.93486 -12.33882 -0.3026 -2.63214 76.73269 4.36798 19.80447 -63.7877 -17.89014 -0.32794 2.5342
-0.2632 -0.27138 0.12252 21.86718 12.95747 -6.08205 15.19333 10.19555 -8.17427 -9.67683 -24.07105 -2.11727 35.26995 15.56464 55.53684 78.0581 57.5326 39.68085 -5.55631 0.32993 10.36672 -54.02981 92.34258 -71.44897 40.24182 3.99584 77.76525 -0.09466 -23.55632 -80.09813 -12.24071 -0.32774 -2.64103 76.77305 4.34994 19.71066 -63.94405 -17.71077 -0.3213 2.5288
-0.26232 -0.27104 0.12211 21.71111 13.12771 -6.02284 14.11627 9.9456 -7.89162 -9.29721 -23.0448 -2.11734 35.88729 15.01913 55.11449 75.1248 56.09331 37.10356 -5.91512 1.25998 10.43745 -52.94308 89.79645 -72.40304 37.6112 3.93965 77.42489 -0.06623 -23.706 -80.29806 -12.0424 -0.37628 -2.657 76.4454 4.66842 20.11625 -64.25197 -17.54526 -0.28951 2.53879
-0.26144 -0.27077 0.12174 21.568 13.45992 -5.9872 12.81812 9.64046 -7.56945 -8.92906 -21.82645 -2.11744 36.65975 14.30149 54.58404 71.8283 54.94983 34.91856 -6.27713 2.33174 10.39427 -51.66035 87.06543 -74.01562 35.01773 3.83325 76.91323 -0.01875 -23.87153 -80.50016 -11.8105 -0.43367 -2.67582 75.99983 5.09263 20.68103 -64.60094 -17.37808 -0.24942 2.55359
-0.26057 -0.27046 0.12135 21.42354 13.69549 -5.94305 11.64995 9.36731 -7.27404 -8.56087 -20.72549 -2.11752 37.3526 13.66455 54.1283 68.6539 53.57586 32.57612 -6.66135 3.37671 10.4144 -50.52621 84.36488 -75.17642 32.4394 3.76934 76.50376 0.01862 -24.02194 -80.69828 -11.59309 -0.48675 -2.69318 75.62858 5.45247 21.14937 -64.92264 -17.20547 -0.21416 2.56537
-0.25965 -0.27019 0.12095 21.26048 14.02874 -5.88935 10.35653 9.06454 -6.9432 -8.17305 -19.49879 -2.11762 38.0902 13.01162 53.57265 65.63916 52.5685 30.13482 -6.95156 4.27767 10.39321 -49.13967 81.87169 -76.96063 29.71546 3.62106 75.99105 0.0622 -24.20536 -80.90373 -11.38031 -0.54133 -2.71146 75.16914 5.87826 21.71554 -65.27536 -17.057 -0.17489 2.58031
-0.25882 -0.26986 0.12059 21.13897 14.19755 -5.86104 9.27059 8.81023 -6.67533 -7.82757 -18.48682 -2.11769 38.76507 12.35366 53.1887 62.22165 50.90043 27.99532 -7.43262 5.50331 10.42721 -48.23116 78.91384 -77.61142 27.30781 3.63858 75.6525 0.0973 -24.32442 -81.09637 -11.15006 -0.59484 -2.72846 74.86568 6.19337 22.11844 -65.57566 -16.85926 -0.1415 2.59013
-0.25821 -0.26934 0.12031 21.12981 13.86336 -5.89938 8.8264 8.70707 -6.60081 -7.60219 -18.12804 -2.11771 39.27831 11.71906 53.40077 57.68686 47.11866 26.61245 -8.48238 7.63013 10.65359 -48.70935 74.67173 -74.96746 25.76174 4.10697 75.84157 0.10483 -24.2562 -81.25382 -10.87181 -0.64258 -2.74054 75.02179 6.17142 22.01656 -65.71611 -16.51845 -0.1304 2.58225
-0.25768 -0.26876 0.12006 21.16182 13.35949 -5.96208 8.59638 8.654 -6.5892 -7.41804 -17.98962 -2.11771 39.71407 11.08712 53.77264 52.77959 42.70607 25.51849 -9.71568 10.06902 10.93636 -49.67148 69.981 -71.16851 24.53405 4.7468 76.21111 0.10307 -24.12382 -81.39864 -10.57849 -0.68899 -2.75129 75.33918 6.03569 21.74787 -65.80379 -16.13 -0.12482 2.56946
-0.25712 -0.26821 0.1198 21.17436 12.9394 -6.01216 8.25869 8.5756 -6.54207 -7.21043 -17.74146 -2.11772 40.15198 10.45769 54.00762 48.10509 38.72566 24.28075 -10.83709 12.33883 11.18438 -50.40122 65.52569 -67.8975 23.16459 5.32156 76.49492 0.1052 -24.02437 -81.54994 -10.29677 -0.73641 -2.76304 75.58267 5.95625 21.56599 -65.92001 -15.76803 -0.11389 2.56054
